<mxfile host="Electron" agent="Mozilla/5.0 (Windows NT 10.0; Win64; x64) AppleWebKit/537.36 (KHTML, like Gecko) draw.io/26.0.4 Chrome/128.0.6613.186 Electron/32.2.5 Safari/537.36" version="26.0.4">
  <diagram id="f106602c-feb2-e66a-4537-3a34d633f6aa" name="Page-1">
    <mxGraphModel dx="989" dy="659" grid="1" gridSize="10" guides="1" tooltips="1" connect="0" arrows="0" fold="1" page="1" pageScale="1" pageWidth="1169" pageHeight="827" background="none" math="0" shadow="0">
      <root>
        <mxCell id="0" />
        <mxCell id="1" parent="0" />
        <mxCell id="14" value="&lt;b&gt;Google &lt;/b&gt;Cloud Platform" style="fillColor=#F6F6F6;strokeColor=none;shadow=0;gradientColor=none;fontSize=14;align=left;spacing=10;fontColor=#717171;9E9E9E;verticalAlign=top;spacingTop=-4;fontStyle=0;spacingLeft=40;html=1;" parent="1" vertex="1">
          <mxGeometry x="600" y="99" width="320" height="441" as="geometry" />
        </mxCell>
        <mxCell id="15" value="" style="shape=mxgraph.gcp2.google_cloud_platform;fillColor=#F6F6F6;strokeColor=none;shadow=0;gradientColor=none;" parent="14" vertex="1">
          <mxGeometry width="23" height="20" relative="1" as="geometry">
            <mxPoint x="20" y="10" as="offset" />
          </mxGeometry>
        </mxCell>
        <mxCell id="Ct9kjdUg9-Lz2t4-R37n-1048" value="" style="shape=mxgraph.gcp2.doubleRect;strokeColor=#dddddd;shadow=1;strokeWidth=1;rounded=1;absoluteArcSize=1;arcSize=2;" vertex="1" parent="14">
          <mxGeometry x="34.04444444444444" y="41" width="241.51111111111112" height="69" as="geometry" />
        </mxCell>
        <mxCell id="Ct9kjdUg9-Lz2t4-R37n-1049" value="&lt;font color=&quot;#000000&quot;&gt;SignUp Frontend&lt;/font&gt;&lt;div&gt;Cloud Run&lt;/div&gt;" style="editableCssRules=.*;html=1;fontColor=#999999;shape=image;verticalLabelPosition=middle;verticalAlign=middle;labelPosition=right;align=left;spacingLeft=20;part=1;points=[];imageAspect=0;image=data:image/svg+xml,PHN2ZyB4bWxucz0iaHR0cDovL3d3dy53My5vcmcvMjAwMC9zdmciIHhtbG5zOnY9Imh0dHBzOi8vdmVjdGEuaW8vbmFubyIgd2lkdGg9IjM2NS40NjQ5OTY3NzA0MjQ5MyIgaGVpZ2h0PSIzNzkuMjIyOTk0NDYzNTc3OTUiIHZpZXdCb3g9IjAgMCA5Ni42OTU5OTkxNDU1MDc4MSAxMDAuMzM1OTk4NTM1MTU2MjUiPiYjeGE7PHN0eWxlIHR5cGU9InRleHQvY3NzIj4mI3hhOwkuc3Qwe2ZpbGw6IzQyODVmNDt9JiN4YTsJLnN0MXtmaWxsOiNhZWNiZmE7fSYjeGE7PC9zdHlsZT4mI3hhOwk8cGF0aCBjbGFzcz0ic3QwIiBkPSJNMjkuNzk0IDEwMC4zMzZMNDYuOTIgNTAuMTY4aDQ5Ljc3NnpNMCA5OS42NzFsMTIuOTc2LTQ5LjUwMkgyOS4yMkwxNi44OTcgOTIuMDU0eiIvPiYjeGE7CTxwYXRoIGNsYXNzPSJzdDEiIGQ9Ik0yOS43OTQgMEw0Ni45MiA1MC4xNjhoNDkuNzc2ek0wIC42NjZsMTIuOTc2IDQ5LjUwMkgyOS4yMkwxNi44OTcgOC4yODN6Ii8+JiN4YTs8L3N2Zz4=;" vertex="1" parent="Ct9kjdUg9-Lz2t4-R37n-1048">
          <mxGeometry width="30" height="30" relative="1" as="geometry">
            <mxPoint x="15" y="15" as="offset" />
          </mxGeometry>
        </mxCell>
        <mxCell id="Ct9kjdUg9-Lz2t4-R37n-1051" value="" style="shape=mxgraph.gcp2.doubleRect;strokeColor=#dddddd;shadow=1;strokeWidth=1;rounded=1;absoluteArcSize=1;arcSize=2;" vertex="1" parent="14">
          <mxGeometry x="34.04444444444444" y="146" width="241.51111111111112" height="69" as="geometry" />
        </mxCell>
        <mxCell id="Ct9kjdUg9-Lz2t4-R37n-1052" value="&lt;font color=&quot;#000000&quot;&gt;Authentication Service&lt;/font&gt;&lt;div&gt;Cloud Run&lt;/div&gt;" style="editableCssRules=.*;html=1;fontColor=#999999;shape=image;verticalLabelPosition=middle;verticalAlign=middle;labelPosition=right;align=left;spacingLeft=20;part=1;points=[];imageAspect=0;image=data:image/svg+xml,PHN2ZyB4bWxucz0iaHR0cDovL3d3dy53My5vcmcvMjAwMC9zdmciIHhtbG5zOnY9Imh0dHBzOi8vdmVjdGEuaW8vbmFubyIgd2lkdGg9IjM2NS40NjQ5OTY3NzA0MjQ5MyIgaGVpZ2h0PSIzNzkuMjIyOTk0NDYzNTc3OTUiIHZpZXdCb3g9IjAgMCA5Ni42OTU5OTkxNDU1MDc4MSAxMDAuMzM1OTk4NTM1MTU2MjUiPiYjeGE7PHN0eWxlIHR5cGU9InRleHQvY3NzIj4mI3hhOwkuc3Qwe2ZpbGw6IzQyODVmNDt9JiN4YTsJLnN0MXtmaWxsOiNhZWNiZmE7fSYjeGE7PC9zdHlsZT4mI3hhOwk8cGF0aCBjbGFzcz0ic3QwIiBkPSJNMjkuNzk0IDEwMC4zMzZMNDYuOTIgNTAuMTY4aDQ5Ljc3NnpNMCA5OS42NzFsMTIuOTc2LTQ5LjUwMkgyOS4yMkwxNi44OTcgOTIuMDU0eiIvPiYjeGE7CTxwYXRoIGNsYXNzPSJzdDEiIGQ9Ik0yOS43OTQgMEw0Ni45MiA1MC4xNjhoNDkuNzc2ek0wIC42NjZsMTIuOTc2IDQ5LjUwMkgyOS4yMkwxNi44OTcgOC4yODN6Ii8+JiN4YTs8L3N2Zz4=;" vertex="1" parent="Ct9kjdUg9-Lz2t4-R37n-1051">
          <mxGeometry width="30" height="30" relative="1" as="geometry">
            <mxPoint x="15" y="15" as="offset" />
          </mxGeometry>
        </mxCell>
        <mxCell id="Ct9kjdUg9-Lz2t4-R37n-1053" value="" style="edgeStyle=orthogonalEdgeStyle;fontSize=12;html=1;endArrow=blockThin;endFill=1;rounded=0;strokeWidth=1;endSize=6;startSize=6;dashed=0;strokeColor=#000000;" edge="1" parent="14" source="Ct9kjdUg9-Lz2t4-R37n-1048" target="Ct9kjdUg9-Lz2t4-R37n-1051">
          <mxGeometry width="100" relative="1" as="geometry">
            <mxPoint x="87.57894736842105" y="241" as="sourcePoint" />
            <mxPoint x="128" y="252" as="targetPoint" />
          </mxGeometry>
        </mxCell>
        <mxCell id="Ct9kjdUg9-Lz2t4-R37n-1054" value="" style="shape=mxgraph.gcp2.doubleRect;strokeColor=#dddddd;shadow=1;strokeWidth=1;rounded=1;absoluteArcSize=1;arcSize=2;" vertex="1" parent="14">
          <mxGeometry x="34.04444444444444" y="251" width="241.51111111111112" height="69" as="geometry" />
        </mxCell>
        <mxCell id="Ct9kjdUg9-Lz2t4-R37n-1055" value="&lt;font color=&quot;#000000&quot;&gt;Infrastructure Manangement&lt;/font&gt;&lt;div&gt;&lt;font color=&quot;#000000&quot;&gt;Service&lt;/font&gt;&lt;div&gt;Cloud Run&lt;/div&gt;&lt;/div&gt;" style="editableCssRules=.*;html=1;fontColor=#999999;shape=image;verticalLabelPosition=middle;verticalAlign=middle;labelPosition=right;align=left;spacingLeft=20;part=1;points=[];imageAspect=0;image=data:image/svg+xml,PHN2ZyB4bWxucz0iaHR0cDovL3d3dy53My5vcmcvMjAwMC9zdmciIHhtbG5zOnY9Imh0dHBzOi8vdmVjdGEuaW8vbmFubyIgd2lkdGg9IjM2NS40NjQ5OTY3NzA0MjQ5MyIgaGVpZ2h0PSIzNzkuMjIyOTk0NDYzNTc3OTUiIHZpZXdCb3g9IjAgMCA5Ni42OTU5OTkxNDU1MDc4MSAxMDAuMzM1OTk4NTM1MTU2MjUiPiYjeGE7PHN0eWxlIHR5cGU9InRleHQvY3NzIj4mI3hhOwkuc3Qwe2ZpbGw6IzQyODVmNDt9JiN4YTsJLnN0MXtmaWxsOiNhZWNiZmE7fSYjeGE7PC9zdHlsZT4mI3hhOwk8cGF0aCBjbGFzcz0ic3QwIiBkPSJNMjkuNzk0IDEwMC4zMzZMNDYuOTIgNTAuMTY4aDQ5Ljc3NnpNMCA5OS42NzFsMTIuOTc2LTQ5LjUwMkgyOS4yMkwxNi44OTcgOTIuMDU0eiIvPiYjeGE7CTxwYXRoIGNsYXNzPSJzdDEiIGQ9Ik0yOS43OTQgMEw0Ni45MiA1MC4xNjhoNDkuNzc2ek0wIC42NjZsMTIuOTc2IDQ5LjUwMkgyOS4yMkwxNi44OTcgOC4yODN6Ii8+JiN4YTs8L3N2Zz4=;" vertex="1" parent="Ct9kjdUg9-Lz2t4-R37n-1054">
          <mxGeometry width="30" height="30" relative="1" as="geometry">
            <mxPoint x="15" y="15" as="offset" />
          </mxGeometry>
        </mxCell>
        <mxCell id="Ct9kjdUg9-Lz2t4-R37n-1056" value="" style="edgeStyle=orthogonalEdgeStyle;fontSize=12;html=1;endArrow=blockThin;endFill=1;rounded=0;strokeWidth=1;endSize=6;startSize=6;dashed=0;strokeColor=#000000;" edge="1" parent="14" source="Ct9kjdUg9-Lz2t4-R37n-1051" target="Ct9kjdUg9-Lz2t4-R37n-1054">
          <mxGeometry width="100" relative="1" as="geometry">
            <mxPoint x="53.89473684210526" y="160" as="sourcePoint" />
            <mxPoint x="53.89473684210526" y="196" as="targetPoint" />
          </mxGeometry>
        </mxCell>
        <mxCell id="Ct9kjdUg9-Lz2t4-R37n-1073" value="" style="strokeColor=#dddddd;shadow=1;strokeWidth=1;rounded=1;absoluteArcSize=1;arcSize=2;" vertex="1" parent="14">
          <mxGeometry x="122.55111111111113" y="361" width="153.00444444444443" height="60" as="geometry" />
        </mxCell>
        <mxCell id="Ct9kjdUg9-Lz2t4-R37n-1074" value="Cloud&#xa;Storage" style="editableCssRules=.*;html=1;fontColor=#999999;shape=image;verticalLabelPosition=middle;verticalAlign=middle;labelPosition=right;align=left;spacingLeft=20;part=1;points=[];imageAspect=0;image=data:image/svg+xml,PHN2ZyB4bWxucz0iaHR0cDovL3d3dy53My5vcmcvMjAwMC9zdmciIHhtbG5zOnY9Imh0dHBzOi8vdmVjdGEuaW8vbmFubyIgd2lkdGg9IjIwIiBoZWlnaHQ9IjE2IiB2aWV3Qm94PSIwIDAgMjAgMTYiPiYjeGE7CTxzdHlsZSB0eXBlPSJ0ZXh0L2NzcyI+JiN4YTsJLnN0MHtmaWxsOiM0Mjg1ZjQ7fSYjeGE7CS5zdDF7ZmlsbDojNjY5ZGY2O30mI3hhOwkuc3Qye2ZpbGw6I2FlY2JmYTt9JiN4YTsJLnN0M3tmaWxsOiNmZmY7fSYjeGE7CTwvc3R5bGU+JiN4YTsJPHBhdGggY2xhc3M9InN0MiIgZD0iTTAgMGgyMHY3SDB6Ii8+JiN4YTsJPHBhdGggY2xhc3M9InN0MSIgZD0iTTE4IDBoMnY3aC0yeiIvPiYjeGE7CTxwYXRoIGNsYXNzPSJzdDAiIGQ9Ik0xOCA3bDItN2gtMnoiLz4mI3hhOwk8cGF0aCBjbGFzcz0ic3QxIiBkPSJNMCAwaDJ2N0gweiIvPiYjeGE7CTxnIGNsYXNzPSJzdDMiPiYjeGE7CQk8cGF0aCBkPSJNNCAzaDZ2MUg0eiIvPiYjeGE7CQk8cmVjdCB4PSIxMyIgeT0iMiIgd2lkdGg9IjMiIGhlaWdodD0iMyIgcng9IjEuNSIvPiYjeGE7CTwvZz4mI3hhOwk8cGF0aCBjbGFzcz0ic3QyIiBkPSJNMCA5aDIwdjdIMHoiLz4mI3hhOwk8cGF0aCBjbGFzcz0ic3QxIiBkPSJNMTggOWgydjdoLTJ6Ii8+JiN4YTsJPHBhdGggY2xhc3M9InN0MCIgZD0iTTE4IDE2bDItN2gtMnoiLz4mI3hhOwk8cGF0aCBjbGFzcz0ic3QxIiBkPSJNMCA5aDJ2N0gweiIvPiYjeGE7CTxnIGNsYXNzPSJzdDMiPiYjeGE7CQk8cGF0aCBkPSJNNCAxMmg2djFINHoiLz4mI3hhOwkJPHJlY3QgeD0iMTMiIHk9IjExIiB3aWR0aD0iMyIgaGVpZ2h0PSIzIiByeD0iMS41Ii8+JiN4YTsJPC9nPiYjeGE7PC9zdmc+;" vertex="1" parent="Ct9kjdUg9-Lz2t4-R37n-1073">
          <mxGeometry width="30" height="24" relative="1" as="geometry">
            <mxPoint x="15" y="18" as="offset" />
          </mxGeometry>
        </mxCell>
        <mxCell id="1036" value="User" style="strokeColor=#dddddd;fillColor=#ffffff;shadow=1;strokeWidth=1;rounded=1;absoluteArcSize=1;arcSize=2;labelPosition=center;verticalLabelPosition=middle;align=center;verticalAlign=bottom;spacingLeft=0;fontColor=#999999;fontSize=12;whiteSpace=wrap;spacingBottom=2;html=1;" parent="1" vertex="1">
          <mxGeometry x="490" y="164.5" width="70" height="100" as="geometry" />
        </mxCell>
        <mxCell id="1037" value="" style="dashed=0;connectable=0;html=1;fillColor=#757575;strokeColor=none;shape=mxgraph.gcp2.desktop_and_mobile;part=1;" parent="1036" vertex="1">
          <mxGeometry x="0.5" width="50" height="33" relative="1" as="geometry">
            <mxPoint x="-25" y="18.5" as="offset" />
          </mxGeometry>
        </mxCell>
        <mxCell id="Ct9kjdUg9-Lz2t4-R37n-1050" value="" style="edgeStyle=orthogonalEdgeStyle;fontSize=12;html=1;endArrow=blockThin;endFill=1;rounded=0;strokeWidth=1;endSize=6;startSize=6;dashed=0;strokeColor=#000000;" edge="1" parent="1" source="1036" target="Ct9kjdUg9-Lz2t4-R37n-1048">
          <mxGeometry width="100" relative="1" as="geometry">
            <mxPoint x="540" y="370" as="sourcePoint" />
            <mxPoint x="640" y="370" as="targetPoint" />
          </mxGeometry>
        </mxCell>
        <mxCell id="Ct9kjdUg9-Lz2t4-R37n-1061" value="&lt;b&gt;GitHub&lt;/b&gt;" style="fillColor=#F6F6F6;strokeColor=none;shadow=0;gradientColor=none;fontSize=14;align=left;spacing=10;fontColor=#717171;9E9E9E;verticalAlign=top;spacingTop=-4;fontStyle=0;spacingLeft=40;html=1;whiteSpace=wrap;" vertex="1" parent="1">
          <mxGeometry x="940" y="99" width="550" height="501" as="geometry" />
        </mxCell>
        <mxCell id="Ct9kjdUg9-Lz2t4-R37n-1058" value="" style="dashed=0;outlineConnect=0;html=1;align=center;labelPosition=center;verticalLabelPosition=bottom;verticalAlign=top;shape=mxgraph.weblogos.github" vertex="1" parent="1">
          <mxGeometry x="956" y="104" width="29" height="28" as="geometry" />
        </mxCell>
        <mxCell id="Ct9kjdUg9-Lz2t4-R37n-1068" value="Manage Tenant Workflow" style="swimlane;html=1;startSize=20;fontStyle=0;collapsible=0;horizontal=1;swimlaneLine=1;strokeWidth=2;swimlaneFillColor=#ffffff;whiteSpace=wrap;" vertex="1" parent="1">
          <mxGeometry x="975" y="149.5" width="480" height="430.5" as="geometry" />
        </mxCell>
        <mxCell id="Ct9kjdUg9-Lz2t4-R37n-1069" value="Workflow dispatched" style="points=[[0.145,0.145,0],[0.5,0,0],[0.855,0.145,0],[1,0.5,0],[0.855,0.855,0],[0.5,1,0],[0.145,0.855,0],[0,0.5,0]];shape=mxgraph.bpmn.event;html=1;verticalLabelPosition=bottom;labelBackgroundColor=#ffffff;verticalAlign=top;align=center;perimeter=ellipsePerimeter;outlineConnect=0;aspect=fixed;outline=standard;symbol=general;" vertex="1" parent="Ct9kjdUg9-Lz2t4-R37n-1068">
          <mxGeometry x="215" y="30.5" width="50" height="50" as="geometry" />
        </mxCell>
        <mxCell id="Ct9kjdUg9-Lz2t4-R37n-1070" value="Update enterprise-tenants.json" style="points=[[0.25,0,0],[0.5,0,0],[0.75,0,0],[1,0.25,0],[1,0.5,0],[1,0.75,0],[0.75,1,0],[0.5,1,0],[0.25,1,0],[0,0.75,0],[0,0.5,0],[0,0.25,0]];shape=mxgraph.bpmn.task;whiteSpace=wrap;rectStyle=rounded;size=10;html=1;container=1;expand=0;collapsible=0;taskMarker=abstract;" vertex="1" parent="Ct9kjdUg9-Lz2t4-R37n-1068">
          <mxGeometry x="180" y="120.5" width="120" height="80" as="geometry" />
        </mxCell>
        <mxCell id="Ct9kjdUg9-Lz2t4-R37n-1071" value="" style="edgeStyle=elbowEdgeStyle;fontSize=12;html=1;endArrow=blockThin;endFill=1;rounded=0;" edge="1" parent="Ct9kjdUg9-Lz2t4-R37n-1068" source="Ct9kjdUg9-Lz2t4-R37n-1069" target="Ct9kjdUg9-Lz2t4-R37n-1070">
          <mxGeometry width="160" relative="1" as="geometry">
            <mxPoint x="-30" y="160.5" as="sourcePoint" />
            <mxPoint x="290" y="130.5" as="targetPoint" />
            <Array as="points">
              <mxPoint x="325" y="111" />
            </Array>
          </mxGeometry>
        </mxCell>
        <mxCell id="Ct9kjdUg9-Lz2t4-R37n-1075" value="enterprise-&lt;div&gt;&lt;span style=&quot;background-color: transparent; color: light-dark(rgb(0, 0, 0), rgb(255, 255, 255));&quot;&gt;tenants.json&lt;/span&gt;&lt;/div&gt;" style="shape=mxgraph.bpmn.data;labelPosition=center;verticalLabelPosition=bottom;align=center;verticalAlign=top;size=15;html=1;" vertex="1" parent="Ct9kjdUg9-Lz2t4-R37n-1068">
          <mxGeometry x="65" y="135.75" width="35" height="49.5" as="geometry" />
        </mxCell>
        <mxCell id="Ct9kjdUg9-Lz2t4-R37n-1076" value="" style="edgeStyle=elbowEdgeStyle;fontSize=12;html=1;endArrow=blockThin;endFill=1;rounded=0;dashed=1;" edge="1" parent="Ct9kjdUg9-Lz2t4-R37n-1068" source="Ct9kjdUg9-Lz2t4-R37n-1070" target="Ct9kjdUg9-Lz2t4-R37n-1075">
          <mxGeometry width="160" relative="1" as="geometry">
            <mxPoint x="245" y="170.5" as="sourcePoint" />
            <mxPoint x="245" y="220.5" as="targetPoint" />
          </mxGeometry>
        </mxCell>
        <mxCell id="Ct9kjdUg9-Lz2t4-R37n-1085" value="Run terraform&amp;nbsp;&lt;div&gt;apply&lt;/div&gt;" style="points=[[0.25,0,0],[0.5,0,0],[0.75,0,0],[1,0.25,0],[1,0.5,0],[1,0.75,0],[0.75,1,0],[0.5,1,0],[0.25,1,0],[0,0.75,0],[0,0.5,0],[0,0.25,0]];shape=mxgraph.bpmn.task;whiteSpace=wrap;rectStyle=rounded;size=10;html=1;container=1;expand=0;collapsible=0;taskMarker=abstract;" vertex="1" parent="Ct9kjdUg9-Lz2t4-R37n-1068">
          <mxGeometry x="180" y="290.5" width="120" height="80" as="geometry" />
        </mxCell>
        <mxCell id="Ct9kjdUg9-Lz2t4-R37n-1086" value="" style="edgeStyle=elbowEdgeStyle;fontSize=12;html=1;endArrow=blockThin;endFill=1;rounded=0;" edge="1" parent="Ct9kjdUg9-Lz2t4-R37n-1068" source="Ct9kjdUg9-Lz2t4-R37n-1070" target="Ct9kjdUg9-Lz2t4-R37n-1085">
          <mxGeometry width="160" relative="1" as="geometry">
            <mxPoint x="250" y="91" as="sourcePoint" />
            <mxPoint x="250" y="141" as="targetPoint" />
          </mxGeometry>
        </mxCell>
        <mxCell id="Ct9kjdUg9-Lz2t4-R37n-1087" value="deployment.json" style="shape=mxgraph.bpmn.data;labelPosition=center;verticalLabelPosition=bottom;align=center;verticalAlign=top;size=15;html=1;" vertex="1" parent="Ct9kjdUg9-Lz2t4-R37n-1068">
          <mxGeometry x="65" y="340.5" width="35" height="49.5" as="geometry" />
        </mxCell>
        <mxCell id="Ct9kjdUg9-Lz2t4-R37n-1091" value="enterprise-&lt;div&gt;tenants.json&lt;/div&gt;" style="shape=mxgraph.bpmn.data;labelPosition=center;verticalLabelPosition=bottom;align=center;verticalAlign=top;size=15;html=1;" vertex="1" parent="Ct9kjdUg9-Lz2t4-R37n-1068">
          <mxGeometry x="67.5" y="239.5" width="35" height="49.5" as="geometry" />
        </mxCell>
        <mxCell id="Ct9kjdUg9-Lz2t4-R37n-1092" value="" style="endArrow=blockThin;html=1;rounded=0;edgeStyle=orthogonalEdgeStyle;dashed=1;endFill=1;" edge="1" parent="Ct9kjdUg9-Lz2t4-R37n-1068" source="Ct9kjdUg9-Lz2t4-R37n-1091" target="Ct9kjdUg9-Lz2t4-R37n-1085">
          <mxGeometry width="50" height="50" relative="1" as="geometry">
            <mxPoint x="85" y="110.5" as="sourcePoint" />
            <mxPoint x="135" y="60.5" as="targetPoint" />
            <Array as="points">
              <mxPoint x="145" y="271" />
              <mxPoint x="145" y="311" />
            </Array>
          </mxGeometry>
        </mxCell>
        <mxCell id="Ct9kjdUg9-Lz2t4-R37n-1083" value="" style="edgeStyle=orthogonalEdgeStyle;fontSize=12;html=1;endArrow=blockThin;endFill=1;rounded=0;dashed=1;elbow=vertical;" edge="1" parent="Ct9kjdUg9-Lz2t4-R37n-1068" source="Ct9kjdUg9-Lz2t4-R37n-1075">
          <mxGeometry width="160" relative="1" as="geometry">
            <mxPoint x="85" y="200.25" as="sourcePoint" />
            <mxPoint x="-175.94666666666672" y="310.25" as="targetPoint" />
            <Array as="points">
              <mxPoint x="-15" y="161" />
              <mxPoint x="-15" y="291" />
              <mxPoint x="-176" y="291" />
            </Array>
          </mxGeometry>
        </mxCell>
        <mxCell id="Ct9kjdUg9-Lz2t4-R37n-1101" value="" style="edgeStyle=orthogonalEdgeStyle;fontSize=12;html=1;endArrow=blockThin;endFill=1;rounded=0;dashed=1;elbow=vertical;" edge="1" parent="Ct9kjdUg9-Lz2t4-R37n-1068" source="Ct9kjdUg9-Lz2t4-R37n-1087" target="Ct9kjdUg9-Lz2t4-R37n-1085">
          <mxGeometry width="160" relative="1" as="geometry">
            <mxPoint x="-89" y="360.5" as="sourcePoint" />
            <mxPoint x="92" y="400.5" as="targetPoint" />
            <Array as="points">
              <mxPoint x="145" y="371" />
              <mxPoint x="145" y="351" />
            </Array>
          </mxGeometry>
        </mxCell>
        <mxCell id="Ct9kjdUg9-Lz2t4-R37n-1084" value="" style="edgeStyle=orthogonalEdgeStyle;fontSize=12;html=1;endArrow=blockThin;endFill=1;rounded=0;strokeWidth=1;endSize=6;startSize=6;dashed=0;strokeColor=#000000;" edge="1" parent="1" source="Ct9kjdUg9-Lz2t4-R37n-1054" target="Ct9kjdUg9-Lz2t4-R37n-1068">
          <mxGeometry width="100" relative="1" as="geometry">
            <mxPoint x="785" y="364" as="sourcePoint" />
            <mxPoint x="785" y="400" as="targetPoint" />
            <Array as="points">
              <mxPoint x="930" y="385" />
              <mxPoint x="930" y="158" />
            </Array>
          </mxGeometry>
        </mxCell>
        <mxCell id="Ct9kjdUg9-Lz2t4-R37n-1099" value="" style="edgeStyle=orthogonalEdgeStyle;fontSize=12;html=1;endArrow=blockThin;endFill=1;rounded=0;dashed=1;elbow=vertical;" edge="1" parent="1" source="Ct9kjdUg9-Lz2t4-R37n-1073" target="Ct9kjdUg9-Lz2t4-R37n-1087">
          <mxGeometry width="160" relative="1" as="geometry">
            <mxPoint x="1050" y="330.5" as="sourcePoint" />
            <mxPoint x="809.0533333333333" y="469.75" as="targetPoint" />
            <Array as="points">
              <mxPoint x="990" y="500" />
              <mxPoint x="990" y="520" />
            </Array>
          </mxGeometry>
        </mxCell>
        <mxCell id="Ct9kjdUg9-Lz2t4-R37n-1100" value="" style="edgeStyle=orthogonalEdgeStyle;fontSize=12;html=1;endArrow=blockThin;endFill=1;rounded=0;dashed=1;elbow=vertical;" edge="1" parent="1" source="Ct9kjdUg9-Lz2t4-R37n-1073" target="Ct9kjdUg9-Lz2t4-R37n-1091">
          <mxGeometry width="160" relative="1" as="geometry">
            <mxPoint x="886" y="510" as="sourcePoint" />
            <mxPoint x="1050" y="550" as="targetPoint" />
            <Array as="points">
              <mxPoint x="990" y="480" />
              <mxPoint x="990" y="420" />
            </Array>
          </mxGeometry>
        </mxCell>
      </root>
    </mxGraphModel>
  </diagram>
</mxfile>
